<svg xmlns="http://www.w3.org/2000/svg" width="378.37" height="378.36" viewBox="0 0 378.37 378.36"><defs><style>.cls-1{fill:#e91e63;}.cls-2{fill:none;}.cls-3{fill:aqua;}.cls-4{fill:#fff;}</style></defs><g id="Layer_2" data-name="Layer 2"><g id="Layer_1-2" data-name="Layer 1"><path class="cls-1" d="M246.81,219.49a9.82,9.82,0,0,0,2.9,7l-6.65-6.65a9.83,9.83,0,0,1-2.91-7V94a9.86,9.86,0,0,0-.39-2.82,9.78,9.78,0,0,1,7.05,9.47Z"/><path class="cls-1" d="M287.35,278.12a9.88,9.88,0,0,1-14,0l-6.66-6.65a9.89,9.89,0,1,0,14-14l6.65,6.65A9.87,9.87,0,0,1,287.35,278.12Z"/><path class="cls-1" d="M160.54,244.26l6.66,6.65a14.74,14.74,0,0,0-10.41-4.32h-32.5a14.71,14.71,0,0,1-13.19-8.17,14.77,14.77,0,0,0,6.54,1.52h32.49A14.72,14.72,0,0,1,160.54,244.26Z"/><path class="cls-1" d="M246.81,283.22V295a14.72,14.72,0,0,1-25.12,10.41L215,298.75a14.72,14.72,0,0,0,25.12-10.41V276.57a14.73,14.73,0,0,0-4.31-10.41l6.65,6.65A14.74,14.74,0,0,1,246.81,283.22Z"/><line class="cls-1" x1="130.39" y1="160.7" x2="130.35" y2="160.67"/><line class="cls-1" x1="246.85" y1="277.16" x2="246.81" y2="277.13"/><path class="cls-1" d="M69.74,55.33c.39.41.78.82,1.15,1.24l-.34-.32A5.86,5.86,0,0,1,69.74,55.33Z"/><path class="cls-1" d="M307.31,68.51c-25.26-23.94-55.8-38.44-91-43.21-50-6.77-94.52,6.37-133.32,38.64-2.09,1.73-3.33,1.68-5.07-.3s-3.5-3.72-5.36-5.48c1.17.7,2.24.4,3.78-.88C115.15,25,159.66,11.87,209.67,18.65,248,23.84,280.81,40.6,307.31,68.51Z"/><path class="cls-1" d="M378.37,184.9v15.95a51.11,51.11,0,0,1-.81,9.57c-.42,2.26-.37,4.58-.71,6.85-9,59.77-39.6,105.1-91.3,136.26-2.12,1.27-2.49,2.37-1.15,4.41a63.87,63.87,0,0,1,3.22,5.93c.45.89,1.48,1.85.8,2.81s-1.89.24-2.85,0l-27.79-7.22c-5-1.3-5-1.28-2.12-5.48l23.26,6c.95.25,2.14,1,2.85,0s-.35-1.92-.81-2.81a63.79,63.79,0,0,0-3.21-5.93c-1.34-2.05-1-3.14,1.14-4.42,51.71-31.15,82.29-76.48,91.31-136.26.34-2.26.28-4.59.71-6.84a51.11,51.11,0,0,0,.81-9.57V178.25l-.55-7.73c0-.15,0-.3,0-.45A168.73,168.73,0,0,0,369,152.73c-6.5-36-21.74-67.54-46.49-93.58,28.69,27.25,46.08,61.1,53.14,100.23a168.73,168.73,0,0,1,2.21,17.34c0,.15,0,.3,0,.45Z"/><path class="cls-1" d="M204.48,377.86a2.55,2.55,0,0,1-1.47.21,28.82,28.82,0,0,1-4,.29H181.85a30,30,0,0,1-6.74-.68c-2.67-.61-5.46-.51-8.16-.92-7.68-1.16-6.21-.72-5.39-6.5a59,59,0,0,1,6.9.77,29.83,29.83,0,0,0,6.74.68h17.11a28.92,28.92,0,0,0,4.05-.29,2.74,2.74,0,0,0,1.47-.21c.89-.54.49-1.35.32-2-.62-2.58-1.31-5.15-2-7.72l2.62-.08c1.66-.06,2.56.4,2.95,2.17.91,4.12,2.05,8.18,3.05,12.28C205,376.52,205.37,377.32,204.48,377.86Z"/><path class="cls-1" d="M51.39,99.61a165.23,165.23,0,0,0-23.24,53.67c-.46,2-1.39,2.47-3.2,1.85q-5.71-2-11.45-3.88c-1.21-.4-2-1-1.6-3q.22-.87.45-1.77c2,.67,4,1.34,6,2,1.81.62,2.74.11,3.2-1.85A165,165,0,0,1,44.74,93c1-1.46.9-2.41.08-3.43,2,2,4,4,6,6C52.22,96.83,52.55,97.85,51.39,99.61Z"/><path class="cls-1" d="M26.48,234.93c-3.68,1.84-7.34,3.75-10.91,5.8-1.92,1.11-2.63.47-3.1-1.4q-.8-3.2-1.49-6.41c2.91-1.63,5.87-3.16,8.85-4.64a2.59,2.59,0,0,0,1.61-3.37,162.3,162.3,0,0,1-4.56-38.12l4.44,0c1.64,0,2.28.6,2.25,2.36a163.82,163.82,0,0,0,4.52,42.43A2.59,2.59,0,0,1,26.48,234.93Z"/><path class="cls-1" d="M61.21,302.82q-4.65,3.9-9.17,7.94c-1.3,1.16-2.28,1-3.31-.27-1.52-1.87-3-3.77-4.45-5.69a3.12,3.12,0,0,0,1.11-.69q4.52-4,9.17-7.94c1.37-1.15,1.45-2.16.3-3.55a167.85,167.85,0,0,1-20.21-31.24l1-.59a8.51,8.51,0,0,1,.84-.43,2.54,2.54,0,0,1,2,1.65,168.66,168.66,0,0,0,23.08,37.26C62.66,300.67,62.58,301.67,61.21,302.82Z"/><path class="cls-1" d="M131.62,351.84c-1.05,3-2.12,6.23-3.25,9.41-1.84,5.11-.69,5.79-7.06,3.13a192.36,192.36,0,0,1-37.94-21.23c-1.46-1-2.05-1.95-1.58-3.14a190.94,190.94,0,0,0,32.87,17.71c6.36,2.67,5.22,2,7-3.12.89-2.49,1.74-5,2.57-7.41,1.82.81,3.67,1.58,5.53,2.32C130.85,349.93,131.67,350.42,131.62,351.84Z"/><line class="cls-2" x1="123.73" y1="154.05" x2="123.69" y2="154.01"/><line class="cls-2" x1="240.19" y1="270.51" x2="240.15" y2="270.47"/><path class="cls-3" d="M70.89,56.57l1.67,1.58A6.52,6.52,0,0,1,71.27,57Z"/><path class="cls-3" d="M44.82,89.53l-1.76-1.75-.39-.39c.51.5,1,1,1.55,1.49A7,7,0,0,1,44.82,89.53Z"/><path class="cls-4" d="M280.7,271.47a9.89,9.89,0,0,1-14,0l-26.55-26.55-90.86-90.87-40.15-40.14a9.9,9.9,0,0,1,14-14l43.27,43.28a9.89,9.89,0,0,0,14,0l49.53-49.52a9.68,9.68,0,0,1,9.84-2.48,9.86,9.86,0,0,1,.39,2.82V212.84a9.83,9.83,0,0,0,2.91,7l6.65,6.65,31,31A9.89,9.89,0,0,1,280.7,271.47Z"/><path class="cls-4" d="M240.15,276.57v11.77A14.72,14.72,0,0,1,215,298.75l-54.49-54.49a14.72,14.72,0,0,0-10.41-4.32H117.64a14.77,14.77,0,0,1-6.54-1.52,14.58,14.58,0,0,1-1.53-6.54V175.42A14.71,14.71,0,0,1,134.69,165L235.84,266.16A14.73,14.73,0,0,1,240.15,276.57Z"/><path class="cls-4" d="M371.72,178.25V194.2a51.11,51.11,0,0,1-.81,9.57c-.43,2.25-.37,4.58-.71,6.84-9,59.78-39.6,105.11-91.31,136.26-2.11,1.28-2.48,2.37-1.14,4.42a63.79,63.79,0,0,1,3.21,5.93c.46.89,1.48,1.85.81,2.81s-1.9.24-2.85,0l-23.26-6,.05-.07c4.36-6.35,8.67-12.73,13-19.08,1.61-2.34,2-2.3,3.39.2,3,5.48,1.95,5.84,7.81,2.17,43.56-27.3,70.85-66,79.14-116.82,8.92-54.59-5.89-102.84-43.5-143.5q-4-4.35-8.26-8.36C280.81,40.6,248,23.84,209.67,18.65c-50-6.78-94.52,6.37-133.32,38.63-1.54,1.28-2.61,1.58-3.78.88h0l-1.67-1.58c-.37-.42-.76-.83-1.15-1.24-.8-1.21-.36-2.22,1-3.41C95,31.21,122.52,16.78,153.87,10.74c63.38-12.23,119.59,2.86,167.06,47,.51.48,1,1,1.53,1.45,24.75,26,40,57.57,46.49,93.58a168.73,168.73,0,0,1,2.21,17.34c0,.15,0,.3,0,.45Z"/><path class="cls-4" d="M197.83,371.21a2.74,2.74,0,0,1-1.47.21,28.92,28.92,0,0,1-4.05.29H175.2a29.83,29.83,0,0,1-6.74-.68,59,59,0,0,0-6.9-.77c0-.18.05-.37.07-.56.35-2.79,1-5.54,1.4-8.32.23-1.69,1-2.23,2.65-2a159.91,159.91,0,0,0,30.51,2.06c.65,2.57,1.34,5.14,2,7.72C198.32,369.86,198.72,370.67,197.83,371.21Z"/><path class="cls-4" d="M44.74,93A165,165,0,0,0,21.5,146.63c-.46,2-1.39,2.47-3.2,1.85-2-.69-4-1.36-6-2,1.38-5.29,3.05-10.94,5-16.5A184.74,184.74,0,0,1,38.6,88.18c1.71-2.5,2.12-2.67,4.07-.79l.39.39,1.76,1.75C45.64,90.55,45.7,91.5,44.74,93Z"/><path class="cls-4" d="M19.83,228.28c-3,1.48-5.94,3-8.85,4.64a185.47,185.47,0,0,1-4.3-37c0-2.26.07-4.51,0-6.76-.07-1.66.5-2.42,2.25-2.39q4,.08,8,0a162.3,162.3,0,0,0,4.56,38.12A2.59,2.59,0,0,1,19.83,228.28Z"/><path class="cls-4" d="M54.56,296.17q-4.65,3.9-9.17,7.94a3.12,3.12,0,0,1-1.11.69,186.41,186.41,0,0,1-20.63-34.31c-.54-1.16-.6-2.13.64-2.88q5.19-3.11,10.36-6.23a167.85,167.85,0,0,0,20.21,31.24C56,294,55.93,295,54.56,296.17Z"/><path class="cls-4" d="M124.28,347.19c-.83,2.43-1.68,4.92-2.57,7.41-1.83,5.11-.69,5.79-7,3.12A190.94,190.94,0,0,1,81.79,340a5,5,0,0,1,.87-1.35c2.34-2.8,4.53-5.75,6.67-8.72,1.18-1.63,2.27-1.88,4-.64A163,163,0,0,0,124.28,347.19Z"/><path class="cls-3" d="M116.48,93.27l6.66,6.65a9.9,9.9,0,1,0-14,14l-6.65-6.65a9.89,9.89,0,1,1,14-14Z"/><path class="cls-3" d="M239.76,91.2a9.68,9.68,0,0,0-9.84,2.48L180.39,143.2a9.89,9.89,0,0,1-14,0l-6.66-6.66a9.88,9.88,0,0,0,14,0L223.27,87A9.9,9.9,0,0,1,239.76,91.2Z"/><path class="cls-3" d="M134.69,165a14.72,14.72,0,0,0-25.12,10.41v56.46a14.58,14.58,0,0,0,1.53,6.54,14.74,14.74,0,0,1-8.18-13.19V168.77A14.71,14.71,0,0,1,128,158.36Z"/><path class="cls-3" d="M320.93,57.7c-47.47-44.1-103.68-59.19-167.06-47-31.35,6-58.86,20.47-83.1,41.18-1.39,1.19-1.83,2.2-1,3.41-1.87-2-3.84-3.88-5.84-5.73-1.77-1.65-1.52-2.86.21-4.33,24.25-20.71,51.76-35.14,83.11-41.19,63.38-12.22,119.59,2.87,167,47,2.84,2.63,5.58,5.34,8.19,8.1C322,58.66,321.44,58.18,320.93,57.7Z"/><path class="cls-3" d="M359.07,220.37c-8.29,50.79-35.58,89.52-79.14,116.82-5.86,3.67-4.84,3.31-7.81-2.17-1.37-2.5-1.78-2.54-3.39-.2-4.35,6.35-8.66,12.73-13,19.08l-.05.07-4.53-1.18c-5-1.3-5-1.28-2.07-5.54,4.36-6.35,8.66-12.73,13-19.09,1.61-2.33,2-2.29,3.38.21,3,5.48,2,5.84,7.82,2.16,43.56-27.29,70.85-66,79.14-116.81,8.92-54.59-5.89-102.84-43.5-143.5-.53-.57-1.07-1.15-1.61-1.71q4.23,4,8.26,8.36C353.18,117.53,368,165.78,359.07,220.37Z"/><path class="cls-3" d="M196.19,361.48a159.91,159.91,0,0,1-30.51-2.06c-1.65-.27-2.42.27-2.65,2-.38,2.78-1.05,5.53-1.4,8.32,0,.19,0,.38-.07.56q-.63-.06-1.26-.15c-7.92-1.19-6.12-.69-5.32-7.06.35-2.79,1-5.54,1.4-8.33.23-1.68,1-2.23,2.65-2a161.87,161.87,0,0,0,33.13,2c1.65-.06,2.56.4,3,2.17C195.44,358.45,195.82,360,196.19,361.48Z"/><path class="cls-3" d="M42.67,87.39c-2-1.88-2.36-1.71-4.07.79A184.74,184.74,0,0,0,17.39,130c-2,5.56-3.66,11.21-5,16.5-1.83-.63-3.66-1.23-5.5-1.85-1.22-.41-2-1-1.61-3,1.46-5.79,3.29-12.09,5.5-18.27A184.74,184.74,0,0,1,32,81.53c1.81-2.66,2.17-2.68,4.46-.41C38.5,83.2,40.56,85.32,42.67,87.39Z"/><path class="cls-3" d="M16.92,182.48c0,1.43,0,2.87,0,4.31q-4,0-8,0c-1.75,0-2.32.73-2.25,2.39.09,2.25,0,4.5,0,6.76a185.47,185.47,0,0,0,4.3,37l-2.06,1.16c-1.92,1.11-2.64.46-3.1-1.41A188.22,188.22,0,0,1,0,189.25c0-2.26.07-4.51,0-6.77-.07-1.65.5-2.41,2.25-2.38,4.13.07,8.26.05,12.4,0C16.31,180.1,17,180.72,16.92,182.48Z"/><path class="cls-3" d="M44.28,304.8c-.79.27-1.49-.08-2.2-1a188,188,0,0,1-25.08-40c-.54-1.17-.61-2.13.64-2.88L29,254.14c.31-.19.64-.33.84-.43a2.55,2.55,0,0,1,2,1.65q1.38,3,2.87,6-5.17,3.12-10.36,6.23c-1.24.75-1.18,1.72-.64,2.88A186.41,186.41,0,0,0,44.28,304.8Z"/><path class="cls-3" d="M125,345.19c-.22.66-.45,1.33-.68,2a163,163,0,0,1-31-17.89c-1.68-1.24-2.77-1-4,.64-2.14,3-4.33,5.92-6.67,8.72a5,5,0,0,0-.87,1.35c-1.7-1.14-3.4-2.31-5.07-3.51-2-1.41-2.35-2.55-.71-4.49,2.34-2.8,4.53-5.75,6.67-8.72,1.18-1.64,2.26-1.89,3.94-.65a163.62,163.62,0,0,0,36.54,20.22C124.2,343.27,125,343.76,125,345.19Z"/></g></g></svg>